<svg xmlns="http://www.w3.org/2000/svg" viewBox="0 0 658.48 671.63"><path d="M477.74,89.53c-4.86-24.44-33.68-26.32-47.5-44.06-6.52-8.36-11.77-18.43-20.52-24.8-11.35-8.27-25.38-3.08-38.1-6.29-15.91-4.01-29.8-12.5-46.47-14.04-16.04-1.49-29.11,2.19-44.13,7.22-14.42,4.83-29.22,8.27-43.16,14.48-13.4,5.97-25.03,14.69-36.16,24.09-11.39,9.63-23.14,18.7-33.63,29.33-10.16,10.29-19.54,21.29-29.13,32.08-10.35,11.66-21.18,22.66-33.87,31.84-12.02,8.69-24.82,16.22-37,24.68-20.55,14.27-39.32,31.58-53.9,51.95-9.96,13.92-22.74,38.74-6.25,53.04,14.09,12.22,38.32,7.83,54.62,3.75,17.32-4.33,36.35-10.98,50.66-21.93,.43-.33,1.1-.83,1.82-1.41,1.15,2.39,2.16,4.84,2.94,7.4,3.24,10.65,2.16,22.6,1.13,33.51-2.54,26.97-4.51,53.99-7.18,80.95-2.04,20.58-5.99,41.56-5.31,62.3,.47,14.31,3.64,30.41,14.79,40.49,13.78,12.45,34.59,10.73,51.85,10.61,10.98-.08,22.37-.97,32.7-4.9,5.92-2.25,11.54-5.17,16.99-8.41,1.77-1.34,3.6-2.6,5.41-3.82-.38,.59-.62,1.07-.66,1.34-.48,3.78,.95,6.71,3,9.42h0v.02c.64,.83,1.32,1.63,2.03,2.43l.05-.05c1.2,1.57,2.19,3.29,2.84,5.2,.75,2.22,.62,5.01,2.04,6.95,1.59,2.17,8.16-5.78,8.5-7.17,1.16-4.73-.64-9.85-3.57-13.82,.02-.02,.04-.04,.06-.05-.23-.25-.45-.5-.68-.74-.33-.41-.67-.8-1.02-1.18-1.94-2.43-3.13-5.01-4.54-7.73,1.24-.83,2.48-1.66,3.73-2.47,.73-.47,1.47-.92,2.21-1.38,13.45-10.01,26.22-20.98,40.72-29.46,36.27-21.22,78.15-37.86,93.85-80.27,1.24-3.34-3.37-.91-4.36-.29-2.97,1.84-5.84,5.06-7.15,8.3-13.99,34.58-50.67,46.03-80.27,64.2-16.12,9.89-30.25,22.45-45.73,33.23-8.48,5.91-17.45,11.66-27.32,15-10.08,3.42-20.81,3.6-31.35,3.87-6.1,.16-12.58,.47-18.97,.2,1.37-.13,2.73-.3,4.07-.49,11.61-1.67,22.94-4.72,33.29-10.27,13.57-7.28,26.89-15.49,38.43-25.69,10.06-8.89,22.39-21.03,24.2-34.99,.27-2.12-4.23,.93-4.41,1.06-2.23,1.62-4.25,3.89-5.32,6.43-9.16,21.73-31.33,36.9-52.86,45.8-9.18,3.8-19.26,6.54-29.2,7.11-4.01,.23-9.01,.32-13.67-.51,.47-.79,.71-1.52,.54-2.06-1.19-3.95-2.76-10.52,.16-13.99,2.48-2.94,7.29-4.93,10.31-7.39,3.8-3.09,7.07-6.68,9.81-10.72,1.65-2.43,5.54-7.25,4.58-10.54-3.1-10.63-31.95,16.94-34.54,20.99-4.52,7.05,4.49,1.54,6.57-1.1,4.09-5.19,6.72-7.49,13.26-10.51,7.54-3.48,2.67,4.51-.45,7.03-9.25,7.49-19.13,13.57-20.01,24.17-.94-.8-1.77-1.71-2.45-2.77-1.07-1.67-10.51,5.96-8.81,8.74,1.06,1.74,2.29,3.17,3.64,4.39-2.73-1.47-5.31-3.31-7.65-5.64-8.93-8.88-11.97-21.51-12.87-33.75,3.43,5.69,8.19,10.21,15.83,12.01,2.23,.52,5.73-3.59,6.87-4.84,2.52-2.76,3.54-4.78,3.2-8.43-.13-1.46-2.68,.2-5.05,2.3-1.84-.73-3.48-1.65-4.94-2.74,2.2-1.93,4-4.22,3.71-5.81-1.29-7.12-8.8-6.59-13.69-8.7-1.44-3.45-2.71-7.05-4.08-10.49-.18-.46-.63-.49-1.22-.24,1.17-11.96,3.14-23.88,4.32-35.8,2.44-24.71,3.69-49.47,6.31-74.16,1.33-12.49,3.62-25.97,1.46-38.46-1.41-8.15-5.72-15.52-10.28-22.31-9.97-14.86-23.56-30.94-18.08-49.97,.9-3.14-3-.96-4.1-.27-2.56,1.59-5.84,4.81-6.72,7.81-5.07,17.23,3.44,31.46,13.21,45.18,2.84,3.99,5.64,8.08,8.03,12.38-11.2,7.85-25.14,12.57-38.2,15.98-14.7,3.84-34.02,7.53-48.39,.53-18.05-8.79-16.68-28.99-7.51-44.05,12.23-20.08,31.16-36.13,50.57-48.99,22.18-14.69,44.06-28.55,62.66-47.76,19-19.62,35.38-41.71,56.8-58.91,10.51-8.44,20.58-17.85,32.1-24.95,12.81-7.89,27.36-12.01,41.69-16.23,14.7-4.34,29.21-10.35,44.75-10.51,14.38-.15,28.5,4.67,41.79,9.62,7.19,2.68,14.29,5.44,22.04,5.74,7.68,.3,15.99-1.26,23.2,2.1,10,4.66,15.44,15.79,21.39,24.39,7.02,10.14,15.53,16.22,26.23,22.24,10.91,6.14,19.9,12.28,22.69,25.17,.67,3.12,13.61-6.44,12.76-10.73Z"/><path d="M493.61,329.01c-.34-.98-.67-1.98-1-2.97-2-8.66-4.68-17.22-7.77-25.79-7.67-21.27-15.51-44.27-9.97-67.16,5.04-20.81,20.41-45.56,13.51-67.54-1.22-3.9-15.17,7.69-13.99,12.2,5.05,19.26-4.87,38.23-10.6,56.15-6.16,19.25-5.9,37.85-.38,57.25,4.26,14.97,10.93,29.47,15.28,44.5,.25,1.77,.5,3.52,.78,5.23,1.11,6.69,2.8,13.08,2.73,19.93-.04,4.1-.53,8.27-1.27,12.29-.55,2.99-1.8,5.6-.82,8.52,1.39,4.11,10.51-6.44,11.3-7.88,7.03-12.75,6.82-31.17,2.19-44.75Z"/><path d="M654.18,188.2c-9.98-9.78-27.72-5.42-39.81-9.94-17.51-6.54-29.84-21.85-43.07-35.03-27.31-27.21-62.77-58.82-102.66-48.37-3.21,.84-6.49,4.69-8.36,7.39-.4,.58-3.98,6.5-1.37,6.12,32.51-4.63,60.67,15.09,84.37,36.84,22.74,20.87,42.06,48.05,74.05,50.82,6.07,.52,12.46,.68,18.19,3.11,2.47,1.04,4.68,2.47,6.55,4.53,1.18,1.31,1.97,2.78,2.9,4.27,.16,.61,.33,1.23,.49,1.84-.03,.27-.05,.49-.05,.68-4.02,1.8-11.84,4.02-12.94,4.29-6.78,1.69-13.59,1.95-20.49,.96-33.16-4.74-55.77-31.19-84.57-46.14-15.43-8.01-30.29-6.84-46.89-7.23-10.76-.25-21.72-.27-31.45-4.08-5.27-2.41-10.05-6.02-9.98-12.06,.02-1.81-9.52,4.77-9.76,8.21-.77,11.03,10.42,17.65,21.86,20.04,.05,.02,.09,.04,.14,.06,.11,.02,.23,.03,.34,.04,3.48,.69,6.95,.98,10.12,.9,1.4,.06,2.79,.1,4.17,.11,17.25,.17,33.67-1.92,49.84,6.53,15.54,8.13,28.19,21.73,43.15,31.04,14.98,9.32,32.28,17.45,49.86,17.51,12.22,.04,25.82-3.97,35.88-11.54,8.58-6.46,20.18-20.44,9.49-30.91Z"/><path d="M335.14,91.22c-16.53,5.49-31.89,12.64-48.47,3.35-6.03-3.38-11.71-8.32-18.44-10.28-6.31-1.84-13.6-.54-19.74,1.36-6.27,1.94-11.62,6.96-17.82,8.5-7.65,1.89-12.68-8.29-18.69-11.89-9.32-5.59-25.42-.77-33.05,6.18-1.2,1.09-5.13,4.31-4.48,6.27,.64,1.92,4.01-.83,4.68-1.43,4.46-4.01,16.52-5.17,21.79-2.85,6.59,2.9,9.37,9.55,15.11,13.22,4.37,2.8,9.06,.39,13.28-1.8,6.95-3.61,13.09-6.88,21.13-7.46,14.59-1.05,23.3,12.48,36.62,15.6,14.22,3.34,29.66-3.45,42.2-9.4,2.43-1.16,5.32-3.84,6.52-6.24,.51-1.01,2.02-4-.63-3.12Z"/><path d="M343.5,223.44c-2.26,1.17-4.57,2.24-6.81,3.2-7.61,3.27-15.47,4.37-23.55,5.74-13.84,2.36-26.44,6.6-34.15,18.99-1.66,2.67,.12,2.9,2.23,2.22,3.03-.98,5.84-4.84,7.45-7.39-2.33,3.7-1.85,1.96,1.33,.97,1.95-.61,3.88-.96,5.91-1.19,3.17-.37,6.39-.42,9.58-.65,7.62-.54,14.79-1.9,21.93-4.75,7.86-3.15,15.69-7.35,22.35-12.56,1.65-1.29,3.64-2.79,5.59-4.45,.02-.07,.04-.15,.06-.22,.17-.67,.43-1.61,.68-2.64-.11-.04-.24-.06-.36-.1-4.07,.18-8.21,1.48-12.23,2.83Z"/></svg>