<?xml version="1.0" encoding="UTF-8"?><svg id="a" xmlns="http://www.w3.org/2000/svg" viewBox="0 0 321.36 240.74"><defs><style>.b{fill:#1d1d1b;}</style></defs><path class="b" d="M233.16,43.69c-2.37-11.93-16.44-12.85-23.18-21.5-3.18-4.08-5.74-8.99-10.01-12.1-5.54-4.04-12.38-1.5-18.6-3.07-7.77-1.96-14.54-6.1-22.68-6.85-7.83-.73-14.21,1.07-21.54,3.52-7.04,2.36-14.26,4.04-21.06,7.07-6.54,2.91-12.22,7.17-17.65,11.76-5.56,4.7-11.29,9.12-16.41,14.31-4.96,5.02-9.54,10.39-14.21,15.66-5.05,5.69-10.34,11.06-16.53,15.54-5.86,4.24-12.11,7.92-18.06,12.04-10.03,6.97-19.19,15.41-26.3,25.35-4.86,6.79-11.1,18.9-3.05,25.89,6.88,5.97,18.7,3.82,26.66,1.83,8.45-2.11,17.74-5.36,24.73-10.7,.21-.16,.54-.4,.89-.69,.56,1.17,1.06,2.36,1.44,3.61,1.58,5.2,1.05,11.03,.55,16.35-1.24,13.16-2.2,26.35-3.5,39.51-1,10.04-2.93,20.28-2.59,30.4,.23,6.98,1.78,14.84,7.22,19.76,6.72,6.08,16.88,5.24,25.3,5.18,5.36-.04,10.92-.47,15.96-2.39,2.89-1.1,5.63-2.52,8.29-4.1,.86-.65,1.76-1.27,2.64-1.86-.18,.29-.3,.52-.32,.65-.23,1.84,.46,3.28,1.46,4.6h0c.31,.41,.64,.8,.98,1.19l.03-.02c.59,.77,1.07,1.61,1.39,2.54,.37,1.09,.3,2.45,.99,3.39,.77,1.06,3.98-2.82,4.15-3.5,.57-2.31-.31-4.81-1.74-6.74l.03-.03c-.11-.12-.22-.24-.33-.36-.16-.2-.32-.39-.5-.57-.95-1.18-1.53-2.45-2.21-3.77,.61-.4,1.21-.81,1.82-1.21,.35-.23,.72-.45,1.08-.67,6.56-4.89,12.8-10.24,19.87-14.38,17.7-10.36,38.14-18.48,45.8-39.18,.6-1.63-1.64-.44-2.13-.14-1.45,.9-2.85,2.47-3.49,4.05-6.83,16.87-24.73,22.47-39.17,31.33-7.86,4.83-14.76,10.96-22.32,16.22-4.14,2.88-8.51,5.69-13.33,7.32-4.92,1.67-10.16,1.76-15.3,1.89-2.98,.08-6.14,.23-9.26,.1,.67-.06,1.33-.14,1.99-.24,5.66-.81,11.19-2.3,16.25-5.01,6.62-3.55,13.12-7.56,18.76-12.54,4.91-4.34,10.93-10.26,11.81-17.07,.13-1.03-2.07,.45-2.15,.52-1.09,.79-2.07,1.9-2.6,3.14-4.47,10.61-15.29,18.01-25.8,22.35-4.48,1.85-9.4,3.19-14.25,3.47-1.96,.11-4.4,.16-6.67-.25,.23-.39,.35-.74,.26-1.01-.58-1.93-1.35-5.13,.08-6.83,1.21-1.44,3.56-2.4,5.03-3.61,1.86-1.51,3.45-3.26,4.79-5.23,.8-1.18,2.71-3.54,2.24-5.14-1.52-5.19-15.59,8.27-16.86,10.24-2.21,3.44,2.19,.75,3.2-.54,1.99-2.53,3.28-3.66,6.47-5.13,3.68-1.7,1.3,2.2-.22,3.43-4.52,3.65-9.33,6.62-9.76,11.8-.46-.39-.86-.83-1.2-1.35-.52-.81-5.13,2.91-4.3,4.27,.52,.85,1.12,1.55,1.78,2.14-1.33-.72-2.59-1.62-3.73-2.75-4.36-4.33-5.84-10.5-6.28-16.47,1.67,2.78,4,4.98,7.72,5.86,1.09,.26,2.8-1.75,3.35-2.36,1.23-1.35,1.73-2.33,1.56-4.12-.06-.71-1.31,.1-2.47,1.12-.9-.35-1.7-.8-2.41-1.34,1.07-.94,1.95-2.06,1.81-2.84-.63-3.48-4.3-3.22-6.68-4.25-.7-1.69-1.32-3.44-1.99-5.12-.09-.22-.31-.24-.6-.12,.57-5.84,1.53-11.66,2.11-17.47,1.19-12.06,1.8-24.14,3.08-36.2,.65-6.09,1.77-12.67,.71-18.77-.69-3.98-2.79-7.58-5.02-10.89-4.87-7.25-11.5-15.1-8.83-24.39,.44-1.53-1.46-.47-2-.13-1.25,.78-2.85,2.35-3.28,3.81-2.47,8.41,1.68,15.35,6.45,22.05,1.39,1.95,2.75,3.94,3.92,6.04-5.47,3.83-12.27,6.13-18.64,7.8-7.17,1.87-16.6,3.68-23.62,.26-8.81-4.29-8.14-14.15-3.66-21.5,5.97-9.8,15.21-17.63,24.68-23.91,10.82-7.17,21.5-13.93,30.58-23.31,9.27-9.58,17.27-20.36,27.72-28.75,5.13-4.12,10.05-8.71,15.66-12.18,6.25-3.85,13.35-5.86,20.35-7.92,7.18-2.12,14.26-5.05,21.84-5.13,7.02-.07,13.91,2.28,20.39,4.7,3.51,1.31,6.97,2.65,10.76,2.8,3.75,.15,7.81-.61,11.32,1.03,4.88,2.28,7.53,7.7,10.44,11.9,3.43,4.95,7.58,7.92,12.8,10.86,5.32,3,9.71,5.99,11.07,12.28,.33,1.52,6.64-3.14,6.23-5.23Z"/><path class="b" d="M240.9,160.57c-.16-.48-.33-.96-.49-1.45-.97-4.23-2.28-8.4-3.79-12.58-3.74-10.38-7.57-21.61-4.87-32.78,2.46-10.16,9.96-22.23,6.59-32.96-.6-1.9-7.4,3.75-6.83,5.96,2.46,9.4-2.38,18.66-5.17,27.4-3.01,9.4-2.88,18.47-.18,27.94,2.08,7.31,5.33,14.38,7.46,21.72,.12,.86,.24,1.72,.38,2.55,.54,3.27,1.37,6.38,1.33,9.73-.02,2-.26,4.04-.62,6-.27,1.46-.88,2.73-.4,4.16,.68,2,5.13-3.14,5.51-3.84,3.43-6.22,3.33-15.21,1.07-21.84Z"/><path class="b" d="M319.27,91.85c-4.87-4.77-13.53-2.65-19.43-4.85-8.55-3.19-14.57-10.67-21.02-17.09-13.33-13.28-30.64-28.71-50.1-23.61-1.57,.41-3.17,2.29-4.08,3.61-.19,.28-1.94,3.17-.67,2.99,15.87-2.26,29.61,7.36,41.17,17.98,11.1,10.19,20.53,23.45,36.14,24.8,2.96,.26,6.08,.33,8.88,1.52,1.21,.51,2.29,1.2,3.19,2.21,.58,.64,.96,1.36,1.41,2.08l.24,.9c-.02,.13-.02,.24-.02,.33-1.96,.88-5.78,1.96-6.31,2.09-3.31,.82-6.63,.95-10,.47-16.18-2.32-27.22-15.22-41.28-22.52-7.53-3.91-14.78-3.34-22.88-3.53-5.25-.12-10.6-.13-15.35-1.99-2.57-1.18-4.9-2.94-4.87-5.89,0-.88-4.65,2.33-4.76,4.01-.37,5.38,5.09,8.61,10.67,9.78,.02,0,.04,.02,.07,.03,.06,0,.11,.01,.17,.02,1.7,.34,3.39,.48,4.94,.44,.68,.03,1.36,.05,2.03,.05,8.42,.08,16.43-.94,24.32,3.19,7.58,3.97,13.76,10.61,21.06,15.15,7.31,4.55,15.75,8.52,24.33,8.55,5.96,.02,12.6-1.94,17.51-5.63,4.19-3.15,9.85-9.97,4.63-15.08Z"/><path class="b" d="M163.56,44.52c-8.07,2.68-15.56,6.17-23.66,1.64-2.94-1.65-5.72-4.06-9-5.02-3.08-.9-6.64-.27-9.64,.66-3.06,.95-5.67,3.4-8.69,4.15-3.73,.92-6.19-4.04-9.12-5.8-4.55-2.73-12.41-.38-16.13,3.01-.59,.53-2.5,2.1-2.19,3.06,.31,.94,1.96-.41,2.29-.7,2.17-1.96,8.06-2.53,10.64-1.39,3.22,1.42,4.57,4.66,7.38,6.45,2.13,1.36,4.42,.19,6.48-.88,3.39-1.76,6.39-3.36,10.31-3.64,7.12-.51,11.37,6.09,17.87,7.61,6.94,1.63,14.48-1.68,20.59-4.59,1.19-.56,2.6-1.88,3.18-3.05,.25-.49,.98-1.95-.31-1.52Z"/><path class="b" d="M167.64,109.05c-1.1,.57-2.23,1.09-3.32,1.56-3.71,1.6-7.55,2.13-11.49,2.8-6.76,1.15-12.9,3.22-16.67,9.27-.81,1.3,.06,1.41,1.09,1.08,1.48-.48,2.85-2.36,3.63-3.61-1.14,1.81-.9,.96,.65,.47,.95-.3,1.89-.47,2.88-.58,1.55-.18,3.12-.21,4.67-.32,3.72-.26,7.22-.93,10.7-2.32,3.84-1.54,7.66-3.58,10.91-6.13,.81-.63,1.78-1.36,2.73-2.17,0-.03,.02-.07,.03-.11,.08-.33,.21-.79,.33-1.29-.05-.02-.12-.03-.18-.05-1.99,.09-4.01,.72-5.97,1.38Z"/></svg>